<svg xmlns="http://www.w3.org/2000/svg" viewBox="0 0 24 24" fill="currentColor">
  <path d="M12 2C6.48 2 2 6.48 2 12c0 4.84 3.44 8.87 8 9.8V13.5c-1.18.52-2 1.71-2 3.08 0 1.88 1.53 3.42 3.42 3.42 1.68 0 3.08-1.22 3.36-2.83l4.33 1.79c.2.08.42-.06.42-.28v-1.2c0-.14-.08-.26-.2-.32l-4.03-1.66c-.47-1.36-1.75-2.34-3.26-2.42L12 6.5l4.5 1.86c.48.2 1 .14 1.42-.15.42-.29.68-.76.68-1.27V5.5c0-.55-.45-1-1-1h-1.2c-.14 0-.26.08-.32.2l-1.66 4.03C13.17 9.2 12.6 9.5 12 9.5s-1.17-.3-1.42-.77L8.92 4.7C8.86 4.58 8.74 4.5 8.6 4.5H7.4c-.55 0-1 .45-1 1v1.44c0 .51.26.98.68 1.27.42.29.94.35 1.42.15L12 6.5l.04 6.58c-.02 0-.03 0-.04 0-1.88 0-3.42 1.53-3.42 3.42 0 .37.06.73.17 1.06L2.2 15.32c-.12-.06-.2-.18-.2-.32v-1.2c0-.22.22-.36.42-.28l2.58 1.07v-2.1l-2.8-1.16C1.48 11.08 1 10.58 1 10V7c0-.55.45-1 1-1h1.5c.28 0 .5.22.5.5s-.22.5-.5.5H2.5V9.5l2.3.95 1.28-3.12c.2-.48.14-1-.15-1.42-.29-.42-.76-.68-1.27-.68H3c-1.1 0-2 .9-2 2v3c0 1.1.9 2 2 2h.5l-.3.12c-.74.31-1.2 1.03-1.2 1.82v1.2c0 .66.4 1.26 1.01 1.51l7.99 3.3v.52c0 .55.45 1 1 1s1-.45 1-1V13.5c1.18.52 2 1.71 2 3.08 0 .37-.06.73-.17 1.06l6.55 2.71c.61.25 1.01.85 1.01 1.51v1.2c0 .79-.46 1.51-1.2 1.82L22 12c0-5.52-4.48-10-10-10z"/>
</svg>
